<?xml version="1.0" encoding="UTF-8" standalone="no"?>
<svg
   xmlns:dc="http://purl.org/dc/elements/1.1/"
   xmlns:cc="http://creativecommons.org/ns#"
   xmlns:rdf="http://www.w3.org/1999/02/22-rdf-syntax-ns#"
   xmlns:svg="http://www.w3.org/2000/svg"
   xmlns="http://www.w3.org/2000/svg"
   xmlns:sodipodi="http://sodipodi.sourceforge.net/DTD/sodipodi-0.dtd"
   xmlns:inkscape="http://www.inkscape.org/namespaces/inkscape"
   width="100.00016mm"
   height="99.999451mm"
   viewBox="0 0 100.00016 99.999451"
   version="1.1"
   id="svg8"
   inkscape:version="1.0.1 (3bc2e813f5, 2020-09-07)"
   sodipodi:docname="lsdk_logo.svg">
  <defs
     id="defs2" />
  <sodipodi:namedview
     id="base"
     pagecolor="#ffffff"
     bordercolor="#666666"
     borderopacity="1.0"
     inkscape:pageopacity="0.0"
     inkscape:pageshadow="2"
     inkscape:zoom="1.1590698"
     inkscape:cx="58.142153"
     inkscape:cy="270.70076"
     inkscape:document-units="mm"
     inkscape:current-layer="layer1"
     inkscape:document-rotation="0"
     showgrid="false"
     fit-margin-top="0"
     fit-margin-left="0"
     fit-margin-right="0"
     fit-margin-bottom="0"
     inkscape:window-width="1920"
     inkscape:window-height="1017"
     inkscape:window-x="-8"
     inkscape:window-y="-8"
     inkscape:window-maximized="1" />
  <metadata
     id="metadata5">
    <rdf:RDF>
      <cc:Work
         rdf:about="">
        <dc:format>image/svg+xml</dc:format>
        <dc:type
           rdf:resource="http://purl.org/dc/dcmitype/StillImage" />
        <dc:title></dc:title>
      </cc:Work>
    </rdf:RDF>
  </metadata>
  <g
     inkscape:label="Lager 1"
     inkscape:groupmode="layer"
     id="layer1"
     transform="translate(-177.54159,-6.6967065)">
    <g
       id="g843"
       transform="matrix(0.03527778,0,0,-0.03527778,177.54159,106.69616)">
      <path
         d="M 2784.8,1414.65 C 2784.8,655.371 2169.29,39.8398 1410,39.8398 650.723,39.8398 35.1992,655.371 35.1992,1414.65 c 0,759.27 615.5238,1374.8 1374.8008,1374.8 759.29,0 1374.8,-615.53 1374.8,-1374.8"
         style="fill:#ffffff;fill-opacity:1;fill-rule:nonzero;stroke:none"
         id="path845" />
      <path
         d="m 1158.67,1187.68 c 9.21,-31.7 31,-111.39 31,-113.99 0,-1.65 -9.48,-2.6 -29.58,-2.6 -16.32,0 -29.58,0.47 -29.58,0.95 0,0.47 -5.9,29.31 -12.98,64.07 -7.12,34.54 -13.02,63.87 -13.02,65.29 0,1.19 10.86,2.13 24.83,2.13 h 24.61 z m -71.19,-47.28 c 6.86,-35.01 12.31,-64.81 12.31,-66.23 0,-2.37 -10.41,-3.08 -43.77,-3.08 h -43.54 l -1.19,7.79 c -0.69,4.02 -2.82,27.93 -4.94,52.52 -1.9,24.81 -4.26,51.09 -5.2,58.64 l -1.423,13.49 h 37.853 37.6 z m -112.128,11.81 c 2.363,-28.37 4.746,-58.19 5.468,-66.24 l 1.407,-14.88 H 950.996 920 v 66.21 66.23 h 25.566 25.528 z M 740.266,1137.3 v -66.21 h -57.27 l 1.652,20.81 c 0.743,11.33 3.106,38.08 4.754,59.6 1.887,21.51 3.547,41.88 3.547,45.65 v 6.38 h 23.645 23.672 z m -74.536,56.31 c -1.648,-13.25 -10.625,-110.23 -10.625,-117.09 v -5.43 h -49.667 c -27.215,0 -49.68,0.47 -49.68,1.19 0,1.89 26.273,124.87 27.211,128.41 0.722,2.13 11.347,2.84 42.566,2.84 h 41.613 z m -112.328,8.02 c 0,-1.17 -6.406,-30.51 -14.199,-65.52 -7.793,-35.01 -14.199,-63.83 -14.199,-64.31 0,-0.47 -17.024,-0.71 -38.074,-0.71 -29.571,0 -37.836,0.71 -37.125,3.08 0.703,1.42 10.144,31.22 20.8,66.23 l 19.868,63.13 h 31.465 c 17.265,0 31.464,-0.94 31.464,-1.9 z m 575.938,92.47 c 8.77,-32.37 16.56,-60.52 17.26,-62.65 0.94,-3.77 -1.42,-4.25 -23.41,-4.25 h -24.62 l -12.51,61 c -6.88,33.36 -12.3,61.52 -12.3,62.71 0,0.94 8.76,1.64 19.62,1.64 h 19.63 z m -82.8,53.26 c 3.81,-16.32 22.5,-112.37 22.5,-115.91 0,-4.02 -2.83,-4.25 -35.25,-4.25 h -35.235 l -1.66,14.87 c -0.704,8.07 -3.332,36.22 -5.704,62.7 l -4.003,47.78 h 29.102 c 28.12,0 29.08,-0.22 30.25,-5.19 z m -88.454,2.36 c 0,-1.65 0.469,-5.7 0.945,-9.01 0.461,-3.3 2.629,-27.18 4.758,-53.21 1.887,-26 4.238,-50.15 4.719,-53.69 l 1.18,-6.61 H 944.863 920 v 62.65 62.7 h 18.926 c 13.496,0 18.918,-0.94 19.16,-2.83 z m -217.82,-60.1 v -62.66 l -22.739,0.72 -22.683,0.71 1.172,8.25 c 0.714,4.49 3.066,32.4 5.429,62.23 l 4.278,53.68 h 17.273 17.27 z m -60.578,55.34 c -1.172,-9.91 -10.379,-108.79 -10.379,-113.28 0,-2.83 -6.887,-3.29 -39.524,-3.29 -38.086,0.22 -39.726,0.22 -39.258,4.95 0.235,2.36 5.899,29.58 12.305,60.06 6.621,30.53 12.039,56.32 12.039,57.51 0,0.94 14.914,1.64 32.895,1.64 h 33.113 z m -93.165,5.95 c 0,-1.19 -6.179,-29.11 -13.73,-62.23 l -13.492,-60.29 h -28.828 c -15.856,0 -29.344,0.7 -30.047,1.42 -1.188,1.17 25.047,90.34 35.234,119.91 1.176,3.06 50.863,4.25 50.863,1.19 z m 490.067,132.9 c 10.19,-36.43 21.04,-75.44 24.15,-86.81 l 5.67,-20.81 h -19.4 -19.39 l -5.23,26.74 c -2.83,14.43 -11.1,53.93 -17.98,87.52 l -12.74,61.01 13.21,-0.72 13.26,-0.7 z m -52.75,-18.68 c 9.25,-47.29 16.8,-86.81 16.8,-87.52 0,-0.7 -12.54,-1.42 -27.93,-1.42 h -27.651 l -6.875,78.78 c -3.536,43.04 -7.09,82.56 -7.793,87.52 l -1.426,8.73 h 18.926 18.929 z m -81.613,74.99 c 0.722,-6.41 1.894,-18.68 2.636,-27.92 0.703,-8.97 1.895,-22.46 2.364,-29.58 5.195,-57.46 8.261,-94.35 8.261,-99.79 v -6.64 H 937.742 920 v 87.52 87.51 h 10.43 10.39 z m -201.961,-75.94 v -87.04 l -15.852,0.22 -16.094,0.25 0.481,8.06 c 0.945,13.26 5.418,71.19 6.609,82.79 0.469,5.91 2.363,26.94 3.77,46.81 l 2.871,35.95 h 8.972 9.243 z m -42.59,80.43 c 0,-6.38 -10.391,-122.28 -12.793,-143.56 -0.703,-5.23 -1.172,-12.78 -1.172,-16.57 l -0.234,-7.12 h -30.723 c -23.203,-0.22 -30.762,0.48 -30.762,2.85 0,1.69 8.028,40.23 17.735,85.86 9.675,45.66 17.753,83.26 17.753,83.97 0,0.7 8.965,1.18 20.098,1.18 h 20.098 z m -66.238,6.13 c -0.239,-0.47 -8.977,-39.49 -19.641,-87.03 l -19.375,-86.35 -22.461,-0.22 c -12.316,0 -23.203,0.22 -23.914,0.7 -0.703,0.24 6.879,27.45 17.266,60.33 10.183,32.89 22.253,71.91 26.98,86.58 l 8.262,26.47 h 16.316 c 9.25,0 16.567,-0.23 16.567,-0.48 z m 394.772,113.31 c 12.31,-44.48 22.97,-82.31 23.43,-83.74 0.71,-2.12 -2.39,-3.06 -11.12,-3.06 -10.42,0 -12.07,0.71 -13.26,5.44 -0.71,2.83 -8.02,39.24 -16.56,80.9 -8.49,41.62 -16.083,77.08 -16.552,78.74 -0.71,1.92 1.172,2.87 5.45,2.87 h 6.382 z m -41.62,0.25 c 8.73,-44.73 15.84,-82.56 15.84,-83.99 0,-3.29 -33.106,-4.48 -33.106,-1.17 0,0.95 -3.066,37.36 -7.109,80.91 -3.789,43.5 -7.09,80.62 -7.09,82.28 0,1.69 3.066,2.87 7.793,2.87 h 7.832 z m -57.227,54.38 c 8.028,-90.81 11.563,-133.16 11.563,-137.18 0,-3.31 -1.883,-4.25 -9.199,-4.25 h -9.004 l 0.468,71.67 c 0.938,96.52 0.938,97.22 2.598,95.81 0.703,-0.71 2.129,-12.55 3.574,-26.05 z m -187.097,-57.46 v -83.97 h -16.328 l 0.945,10.15 c 0.703,5.47 3.308,37.16 5.898,70.28 5.664,70.72 7.356,87.52 8.535,87.52 0.469,0 0.95,-37.86 0.95,-83.98 z m -24.387,71.9 c -0.703,-6.88 -4.246,-44.71 -8.027,-83.97 l -6.407,-71.9 h -18.449 c -10.625,0 -18.445,0.94 -18.445,2.36 0,2.83 32.883,158.23 34.297,162.72 0.476,1.45 4.992,2.87 9.707,2.87 h 8.515 z m -41.856,11.61 c 0,-0.48 -8.535,-37.87 -18.671,-83.51 l -18.457,-82.78 -14.434,-0.71 c -8.047,-0.48 -14.668,0.23 -14.668,1.17 0,0.95 11.367,38.8 25.293,84.22 l 25.566,82.08 h 7.559 c 4.277,0 7.812,-0.24 7.812,-0.47 z m 51.094,87.51 c -6.406,-67.41 -5.461,-63.4 -13.73,-63.4 -5.664,0 -6.836,0.95 -6.133,4.25 0.715,2.14 5.676,26.03 11.34,53 5.926,26.96 10.886,48.48 11.355,48 0.469,-0.46 -0.703,-19.39 -2.832,-41.85 z m 233.203,-62.93 c -3.066,-0.47 -6.132,-0.47 -6.621,0 -0.937,0.94 -10.644,103.59 -10.176,109.04 0,1.65 5.235,-22.22 11.368,-52.76 l 11.132,-55.57 z m 22.735,58.19 c 16.308,-58.43 16.308,-58.66 10.859,-58.66 -3.066,0 -5.676,0.7 -5.676,1.88 0,0.95 -5.183,27.22 -11.824,58.43 -16.809,81.14 -16.328,81.14 6.641,-1.65 z m -287.871,4.03 -13.496,-61.51 -6.836,-0.71 c -5.469,-0.71 -6.407,0 -5.469,3.54 5.469,20.35 38.586,123.71 39.062,122.3 0.227,-1.19 -5.703,-29.81 -13.261,-63.62 z m 268.711,62.19 c -0.743,-1.88 -1.446,-1.17 -1.446,1.43 -0.234,2.6 0.469,4.02 1.211,3.07 0.703,-0.71 0.945,-2.83 0.235,-4.5 z m -63.165,484.17 v -39.02 H 768.633 v 78.06 h 65.039 65.058 z m -73.32,150.43 V 2512 l -7.59,-1.65 c -17.488,-3.79 -39.949,-21.99 -55.808,-45.41 -6.614,-10.17 -9.473,-12.54 -14.903,-12.54 h -6.843 v -17.73 c 0,-17.27 0.23,-17.74 5.894,-17.74 h 5.91 v -37.85 -37.85 h -39.023 -39.024 v -43.75 -43.76 h 21.282 c 17.261,0 21.289,-0.71 21.289,-3.54 0,-1.9 -1.653,-3.56 -3.547,-3.56 -3.067,0 -3.543,-11.11 -3.067,-91.52 l 0.704,-91.78 7.793,-0.71 c 6.875,-0.72 7.586,-1.65 7.586,-8.29 0,-4.02 -76.18,-250.25 -169.129,-546.84 C 464,1210.65 387.816,967.27 387.816,966.281 c 0,-0.941 6.407,-1.652 14.196,-1.652 h 13.961 l 9.679,31.23 c 5.469,17.271 10.657,34.061 11.61,37.361 l 1.879,5.94 39.531,0.7 39.48,0.48 -1.414,-5.23 c -3.769,-16.05 -15.371,-68.829 -15.371,-69.77 0,-0.481 7.074,-0.711 15.852,-0.231 l 15.847,0.7 4.247,20.14 c 2.128,11.082 5.902,27.891 7.789,37.361 l 3.816,17.03 h 50.848 50.586 l -0.235,-8.78 c 0,-4.95 -1.418,-21.97 -2.832,-37.822 l -3.066,-29.109 h 14.902 c 13.25,0 14.902,0.48 15.149,4.762 0.234,2.589 0.476,5.429 0.703,6.609 0.23,0.93 1.179,13.949 2.363,28.86 0.945,14.91 2.129,29.08 2.832,31.47 1.18,3.53 4.715,4.01 30.762,4.01 h 29.336 v -37.84 -37.871 l 89.402,0.48 c 69.297,0.461 89.16,1.411 89.395,3.813 0.234,1.41 0.48,18.199 0.71,37.128 l 0.227,34.29 h 31.699 c 28.399,0 31.946,-0.48 33.125,-4.01 1.192,-4.52 4.485,-47.549 4.727,-62.701 l 0.234,-9 h 14.665 c 8.03,0 15.14,0.711 15.62,1.652 0.48,1.219 -0.48,15.848 -2.13,32.649 -1.65,17.03 -3.08,33.11 -3.08,36.18 l -0.23,5.23 h 45.88 c 41.88,0 46.13,-0.48 47.3,-4.01 4.02,-13.96 13.26,-67.408 12.08,-69.31 -0.94,-1.45 4.72,-2.391 15.15,-2.391 10.86,0 16.78,0.941 16.78,2.641 0,1.41 -3.09,17.972 -7.1,36.88 -3.78,18.68 -7.09,34.53 -7.09,35.25 0,0.46 13.95,0.7 31.22,0.46 l 30.95,-0.7 10.43,-36.42 c 5.67,-20.131 10.66,-36.931 11.14,-37.4 0.47,-0.481 7.31,-0.711 15.09,-0.231 l 14.2,0.7 -155.87,544.031 c -85.61,299.21 -155.864,548.03 -155.864,552.99 0,7.81 0.715,8.75 5.937,8.75 h 5.899 v 86.35 c 0,84.67 0,86.33 -4.715,86.33 -2.641,0 -4.758,1.66 -4.758,3.54 0,3.78 1.414,4.03 29.102,4.26 l 15.847,0.24 v 45.65 45.66 H 949.59 912.695 l 0.703,35 0.704,34.77 6.621,0.71 6.64,0.71 -0.742,18.2 c -0.703,17.98 -0.703,18.22 -7.324,18.93 -4.719,0.72 -7.551,3.07 -11.121,9.7 -10.863,21.77 -45.871,49.91 -61.946,49.91 -3.789,0 -4.257,2.13 -4.257,16.55 v 16.56 h -8.301 -8.262 v -16.33"
         style="fill:#c82128;fill-opacity:1;fill-rule:nonzero;stroke:none"
         id="path847" />
      <path
         d="m 1354.94,2361.81 v -123.58 h -177.58 v 247.17 h 88.79 88.79 z m -189.58,-1.18 v -136.8 h 403.18 l -49.2,68.4 c -27.13,37.67 -49.2,69.58 -49.2,70.78 0,1.44 21.34,30.72 47.5,65.51 26.15,34.57 48.49,64.32 49.45,66.01 1.45,2.16 -39.38,2.87 -199.91,2.87 h -201.82 v -136.77"
         style="fill:#1d3c85;fill-opacity:1;fill-rule:nonzero;stroke:none"
         id="path849" />
      <path
         d="m 1559.16,2043.61 c 2.17,-7.45 2.64,-134.88 0.49,-146.86 -1.45,-9.86 -6.97,-14.17 -10.57,-8.63 -3.12,5.02 -2.63,152.6 0.49,158.36 3.11,6.01 7.42,4.8 9.59,-2.87 z m -17.03,42.95 c -11.29,-3.11 -23.05,-14.87 -28.09,-28.07 -3.83,-9.85 -4.31,-20.41 -4.31,-91.44 v -80.4 l 6.72,-13.66 c 18.71,-38.17 66.71,-32.39 78.71,9.59 2.63,8.39 3.36,30.23 3.36,88.08 0,75.82 0,77.03 -5.77,89.5 -6.48,14.64 -15.82,23.29 -28.53,26.89 -10.33,2.87 -10.8,2.63 -22.09,-0.49"
         style="fill:#1d3c85;fill-opacity:1;fill-rule:nonzero;stroke:none"
         id="path851" />
      <path
         d="m 1171.84,2083.2 c -0.96,-0.95 -1.68,-53.52 -1.68,-116.63 v -114.7 h 32.4 32.4 v 22.8 22.78 h -12.01 -12 l -0.48,93.12 -0.72,92.88 -17.99,0.71 c -10.09,0.25 -18.96,0 -19.92,-0.96"
         style="fill:#1d3c85;fill-opacity:1;fill-rule:nonzero;stroke:none"
         id="path853" />
      <path
         d="m 1243.83,2083.2 c -0.96,-0.95 -1.68,-53.52 -1.68,-116.63 v -114.7 h 20.4 20.4 l -0.48,115.9 -0.72,115.68 -18,0.71 c -10.08,0.25 -18.96,0 -19.92,-0.96"
         style="fill:#1d3c85;fill-opacity:1;fill-rule:nonzero;stroke:none"
         id="path855" />
      <path
         d="m 1299.02,2082.96 c -0.95,-0.71 -1.68,-53.28 -1.68,-116.39 v -114.7 h 16.81 16.79 l 0.25,51.12 0.23,50.86 10.08,-50.39 10.08,-50.39 17.28,-0.73 17.27,-0.72 v 116.63 116.4 h -15.59 -15.6 l -0.24,-50.89 c 0,-32.4 -0.96,-49.43 -2.16,-46.3 -1.19,2.63 -6,23.27 -10.8,45.6 -4.55,22.54 -8.87,43.19 -9.6,46.3 -1.2,4.8 -2.63,5.29 -16.55,5.29 -8.16,0 -15.84,-0.73 -16.57,-1.69"
         style="fill:#1d3c85;fill-opacity:1;fill-rule:nonzero;stroke:none"
         id="path857" />
      <path
         d="m 1454.3,2040.01 c 0.72,-2.16 1.44,-34.8 1.44,-72.96 0,-59.75 -0.49,-69.83 -3.85,-72.95 -1.91,-2.15 -4.8,-3.83 -5.99,-3.83 -1.21,0 -2.17,31.18 -2.17,76.78 0,73.67 0.23,76.81 4.55,76.81 2.42,0 5.29,-1.69 6.02,-3.85 z m -49.44,43.44 c -1.21,-1.2 -1.93,-53.77 -1.93,-116.88 v -114.7 l 31.91,0.23 c 39.85,0 46.82,2.16 54.01,16.57 5.27,10.8 5.53,11.27 4.8,98.38 -0.72,83.28 -0.95,88.08 -5.76,96.95 -7.44,14.64 -16.56,18 -51.6,19.67 -16.31,0.98 -30.47,0.74 -31.43,-0.22"
         style="fill:#1d3c85;fill-opacity:1;fill-rule:nonzero;stroke:none"
         id="path859" />
      <path
         d="m 1615.8,2082.96 c -0.98,-0.71 -1.68,-53.28 -1.68,-116.39 v -114.7 h 17.99 18.01 l 0.23,71.51 0.26,71.27 6.95,-69.59 c 3.59,-38.17 6.72,-70.32 6.72,-71.28 0.47,-3.36 24.22,-2.16 24.22,1.2 0,6 12.01,142.06 12.96,145.68 0.49,1.92 0.98,-30.72 1.22,-72.48 l 0.23,-76.31 h 16.8 16.79 v 116.38 116.4 h -24.96 -24.96 l -1.42,-6.49 c -0.73,-3.84 -2.41,-24.48 -3.85,-46.32 -1.68,-21.84 -3.61,-42.22 -4.55,-45.36 -0.98,-3.34 -3.38,12.72 -6,40.8 -2.42,25.69 -4.8,48.97 -5.53,52.08 -1.21,5.05 -2.4,5.29 -24.49,5.29 -12.95,0 -24.22,-0.73 -24.94,-1.69"
         style="fill:#1d3c85;fill-opacity:1;fill-rule:nonzero;stroke:none"
         id="path861" />
      <path
         d="m 1752.6,2083.2 c -0.98,-0.95 -1.7,-53.52 -1.7,-116.63 v -114.7 h 34.78 34.81 v 22.8 22.78 h -14.4 -14.39 v 26.41 26.39 h 11.99 12.01 v 21.61 21.59 h -12.01 -11.99 v 22.8 22.8 h 13.2 13.42 l -0.7,22.31 -0.73,22.09 -31.42,0.71 c -17.05,0.25 -31.93,-0.24 -32.87,-0.96"
         style="fill:#1d3c85;fill-opacity:1;fill-rule:nonzero;stroke:none"
         id="path863" />
      <path
         d="m 1199.2,1734.04 c -12.73,-3.83 -18.73,-8.88 -24.72,-20.88 -4.56,-9.6 -5.52,-15.12 -5.52,-37.68 0,-38.39 2.64,-45.35 26.87,-71.51 11.28,-11.76 21.37,-24.24 22.56,-27.35 3.61,-9.61 2.65,-38.17 -1.44,-41.52 -7.91,-6.72 -10.55,-1.2 -11.27,23.27 l -0.72,23.52 -17.28,0.73 -17.52,0.71 v -22.56 c 0,-29.5 4.32,-44.15 16.56,-55.19 16.55,-14.88 39.11,-14.41 56.87,1.2 10.8,9.37 13.68,21.36 13.68,53.5 0,40.33 -3.35,49.21 -29.52,76.57 -18.48,19.44 -21.35,23.76 -22.79,33.36 -0.97,6 -0.97,13.42 0,16.56 5.51,17.75 13.19,12.47 13.19,-9.12 v -15.36 h 18.01 17.99 v 16.31 c -0.23,29.53 -6.23,43.67 -21.84,51.36 -11.04,5.51 -23.27,6.96 -33.11,4.08"
         style="fill:#1d3c85;fill-opacity:1;fill-rule:nonzero;stroke:none"
         id="path865" />
      <path
         d="m 1415.18,1690.84 c 2.15,-7.45 2.63,-134.87 0.48,-146.85 -1.44,-9.87 -6.97,-14.18 -10.56,-8.65 -3.13,5.04 -2.64,152.61 0.48,158.38 3.11,6.01 7.43,4.79 9.6,-2.88 z m -17.04,42.96 c -11.28,-3.13 -23.04,-14.88 -28.08,-28.08 -3.84,-9.84 -4.32,-20.4 -4.32,-91.44 v -80.38 l 6.72,-13.67 c 18.71,-38.17 66.72,-32.4 78.71,9.58 2.64,8.4 3.36,30.23 3.36,88.07 0,75.84 0,77.04 -5.76,89.51 -6.48,14.65 -15.84,23.28 -28.56,26.89 -10.32,2.88 -10.8,2.64 -22.07,-0.48"
         style="fill:#1d3c85;fill-opacity:1;fill-rule:nonzero;stroke:none"
         id="path867" />
      <path
         d="m 1318.46,1688.19 c 4.57,-4.56 3.84,-48.46 -0.96,-53.26 -1.91,-2.16 -4.79,-3.84 -6,-3.84 -1.2,0 -2.15,13.2 -2.15,29.99 0,30.48 1.44,34.8 9.11,27.11 z m -47.99,42.24 c -1.2,-0.96 -1.92,-53.51 -1.92,-116.62 V 1499.1 h 20.4 20.4 v 46.56 46.3 l 11.75,1.21 c 27.6,2.64 32.64,12.71 32.41,66.7 0,35.05 -0.49,40.8 -5.05,50.9 -7.2,16.06 -14.88,19.19 -48.71,20.63 -15.12,0.48 -28.32,0.23 -29.28,-0.97"
         style="fill:#1d3c85;fill-opacity:1;fill-rule:nonzero;stroke:none"
         id="path869" />
      <path
         d="m 1520.06,1688.19 c 3.1,-3.11 4.06,-36.7 1.42,-43.68 -0.72,-2.16 -3.59,-3.83 -5.99,-3.83 -4.08,0 -4.57,2.16 -4.57,25.21 0,25.67 1.68,29.77 9.14,22.3 z m -48.01,42.48 c -1.19,-1.2 -1.91,-53.75 -1.91,-116.86 V 1499.1 h 20.39 20.39 v 52.8 c 0,41.75 0.72,52.8 3.12,52.8 7.93,0 8.89,-5.54 8.89,-55.69 v -49.91 h 17.99 18.01 v 47.98 c 0,52.57 -1.68,60.97 -13.21,68.64 l -6.25,4.1 7.21,4.31 c 10.08,6 12.97,18.96 11.76,50.15 -1.19,30.01 -6.72,45.36 -18.48,51.37 -8.14,4.31 -64.78,8.39 -67.91,5.02"
         style="fill:#1d3c85;fill-opacity:1;fill-rule:nonzero;stroke:none"
         id="path871" />
      <path
         d="m 1568.54,1709.08 v -22.8 h 21.58 V 1499.1 h 20.39 20.41 v 93.59 93.59 h 10.8 10.8 v 22.8 22.8 h -42.01 -41.97 v -22.8"
         style="fill:#1d3c85;fill-opacity:1;fill-rule:nonzero;stroke:none"
         id="path873" />
      <path
         d="m 1713.48,1687.24 c 0.72,-2.16 1.42,-34.8 1.42,-72.96 0,-59.74 -0.49,-69.83 -3.83,-72.94 -1.91,-2.16 -4.8,-3.84 -6.01,-3.84 -1.19,0 -2.15,31.18 -2.15,76.78 0,73.67 0.23,76.81 4.55,76.81 2.4,0 5.29,-1.69 6.02,-3.85 z m -49.46,43.43 c -1.19,-1.2 -1.91,-53.75 -1.91,-116.86 V 1499.1 l 31.93,0.25 c 39.81,0 46.78,2.15 53.99,16.56 5.27,10.79 5.51,11.27 4.8,98.37 -0.72,83.29 -0.97,88.07 -5.78,96.96 -7.42,14.65 -16.54,17.99 -51.58,19.67 -16.33,0.97 -30.49,0.72 -31.45,-0.24"
         style="fill:#1d3c85;fill-opacity:1;fill-rule:nonzero;stroke:none"
         id="path875" />
      <path
         d="m 1760.51,1729.47 c 0,-1.42 5.99,-34.3 13.2,-73.18 12.95,-68.87 13.2,-71.27 13.2,-113.75 v -43.44 h 17.99 17.99 v 41.51 c 0,41.03 0.25,42.72 14.41,115.92 7.91,40.8 14.4,74.38 14.4,74.62 0,0.48 -8.16,0.73 -18.01,0.73 -11.03,0 -17.99,-0.97 -17.99,-2.41 0,-4.56 -10.09,-85.18 -10.56,-85.89 -0.49,-0.25 -2.64,17.5 -4.81,39.59 -2.38,22.31 -4.78,42.23 -5.27,44.63 -1.19,3.35 -4.08,4.08 -18.01,4.08 -9.82,0 -16.54,-0.97 -16.54,-2.41"
         style="fill:#1d3c85;fill-opacity:1;fill-rule:nonzero;stroke:none"
         id="path877" />
      <path
         d="m 1860.59,1730.43 c -0.98,-0.96 -1.7,-53.51 -1.7,-116.62 V 1499.1 h 20.41 20.41 l 0.47,46.31 0.7,46.09 7.23,-46.33 7.18,-46.07 h 19.67 c 11.04,0 19.92,0.72 19.92,1.45 0,0.95 -5.27,29.5 -11.99,63.82 l -12.01,62.15 10.8,49.69 c 6.02,27.11 10.8,50.86 10.8,52.78 0,2.41 -4.32,2.89 -17.28,2.41 l -17.52,-0.73 -8.64,-41.99 -8.86,-42 -0.73,42 -0.97,41.99 -17.99,0.73 c -10.08,0.23 -18.97,0 -19.9,-0.97"
         style="fill:#1d3c85;fill-opacity:1;fill-rule:nonzero;stroke:none"
         id="path879" />
      <path
         d="m 2013.44,1605.41 1.44,-22.31 h -7.18 c -4.11,0 -7.23,1.19 -7.23,3.1 0,3.38 6.97,83.29 7.44,86.88 0.49,2.64 3.13,-30.95 5.53,-67.67 z m -34.55,125.74 c 0,-0.24 -4.32,-49.43 -9.61,-109.42 -5.28,-59.76 -9.59,-111.84 -9.59,-115.68 v -6.95 h 18.94 18.97 l 1.44,7.43 c 0.73,4.09 1.43,13.94 1.43,21.85 v 14.16 l 7.93,-0.71 7.67,-0.74 0.73,-20.86 0.72,-21.13 h 20.41 20.16 l -1.21,8.88 c -0.73,5.04 -5.53,53.99 -10.81,108.7 -5.27,54.73 -10.31,103.2 -11.03,107.52 l -1.21,7.68 h -27.37 c -15.11,0 -27.57,-0.25 -27.57,-0.73"
         style="fill:#1d3c85;fill-opacity:1;fill-rule:nonzero;stroke:none"
         id="path881" />
      <path
         d="m 2115.2,1688.19 c 3.1,-3.11 4.06,-36.7 1.42,-43.68 -0.7,-2.16 -3.59,-3.83 -5.99,-3.83 -4.09,0 -4.58,2.16 -4.58,25.21 0,25.67 1.7,29.77 9.15,22.3 z m -48.01,42.48 c -1.19,-1.2 -1.92,-53.75 -1.92,-116.86 V 1499.1 h 20.41 20.37 v 52.8 c 0,41.75 0.75,52.8 3.15,52.8 7.91,0 8.89,-5.54 8.89,-55.69 v -49.91 h 17.96 18.01 v 47.98 c 0,52.57 -1.68,60.97 -13.2,68.64 l -6.23,4.1 7.21,4.31 c 10.05,6 12.95,18.96 11.73,50.15 -1.19,30.01 -6.71,45.36 -18.45,51.37 -8.17,4.31 -64.81,8.39 -67.93,5.02"
         style="fill:#1d3c85;fill-opacity:1;fill-rule:nonzero;stroke:none"
         id="path883" />
      <path
         d="m 2170.14,1730.43 c -0.96,-0.96 -1.66,-53.51 -1.66,-116.62 V 1499.1 h 20.39 20.39 l 0.47,46.31 0.74,46.09 7.21,-46.33 7.16,-46.07 h 19.69 c 11.04,0 19.92,0.72 19.92,1.45 0,0.95 -5.27,29.5 -11.99,63.82 l -12.01,62.15 10.8,49.69 c 6,27.11 10.8,50.86 10.8,52.78 0,2.41 -4.32,2.89 -17.28,2.41 l -17.52,-0.73 -8.64,-41.99 -8.88,-42 -0.71,42 -0.95,41.99 -18.01,0.73 c -10.08,0.23 -18.97,0 -19.92,-0.97"
         style="fill:#1d3c85;fill-opacity:1;fill-rule:nonzero;stroke:none"
         id="path885" />
      <path
         d="m 2273.34,1730.43 c -0.98,-0.96 -1.68,-53.51 -1.68,-116.62 V 1499.1 h 32.4 32.4 v 22.8 22.8 h -12.03 -11.97 l -0.49,93.11 -0.72,92.86 -17.99,0.73 c -10.1,0.23 -18.96,0 -19.92,-0.97"
         style="fill:#1d3c85;fill-opacity:1;fill-rule:nonzero;stroke:none"
         id="path887" />
      <path
         d="m 2344.12,1633 c 0.72,-95.25 0.98,-99.57 5.76,-109.9 15.84,-33.6 56.62,-38.65 73.91,-8.88 9.37,15.83 11.29,39.83 10.57,133.67 l -0.71,82.78 h -19.2 -19.22 l -1.19,-98.14 c -0.95,-75.34 -1.91,-98.41 -4.08,-99.1 -6.72,-2.4 -7.91,13.18 -7.91,105.1 v 93.35 h -19.43 -19.22 l 0.72,-98.88"
         style="fill:#1d3c85;fill-opacity:1;fill-rule:nonzero;stroke:none"
         id="path889" />
      <path
         d="m 2499.16,1601.81 c 3.11,-3.12 4.06,-54 0.96,-58.56 -0.96,-1.42 -3.6,-3.11 -5.76,-4.07 -4.09,-1.43 -4.32,0.96 -4.32,31.91 0,34.32 1.19,38.65 9.12,30.72 z m 1.45,85.43 c 0.7,-2.16 1.42,-11.76 1.42,-21.35 0,-20.64 -1.42,-25.21 -7.44,-25.21 -4.08,0 -4.55,2.16 -4.55,25.21 0,23.04 0.47,25.2 4.55,25.2 2.4,0 5.27,-1.69 6.02,-3.85 z m -49.69,42.97 c -0.98,-0.74 -1.68,-53.29 -1.68,-116.64 v -114.95 l 35.76,0.95 c 52.79,1.22 54.96,3.6 55.2,62.4 0.23,40.33 -2.41,50.88 -14.42,58.07 l -7.42,4.33 7.19,4.31 c 9.12,5.76 12.48,15.61 12.48,38.66 0,40.54 -9.36,57.82 -33.36,62.13 -14.63,2.65 -51.35,3.37 -53.75,0.74"
         style="fill:#1d3c85;fill-opacity:1;fill-rule:nonzero;stroke:none"
         id="path891" />
      <path
         d="m 2604.75,1601.81 c 3.1,-3.12 4.08,-54 0.95,-58.56 -0.95,-1.42 -3.59,-3.11 -5.76,-4.07 -4.08,-1.43 -4.31,0.96 -4.31,31.91 0,34.32 1.19,38.65 9.12,30.72 z m 1.42,85.43 c 0.74,-2.16 1.45,-11.76 1.45,-21.35 0,-20.64 -1.45,-25.21 -7.42,-25.21 -4.09,0 -4.57,2.16 -4.57,25.21 0,23.04 0.48,25.2 4.57,25.2 2.4,0 5.25,-1.69 5.97,-3.85 z m -49.67,42.97 c -0.95,-0.74 -1.68,-53.29 -1.68,-116.64 v -114.95 l 35.75,0.95 c 52.81,1.22 54.98,3.6 55.21,62.4 0.24,40.33 -2.4,50.88 -14.39,58.07 l -7.44,4.33 7.18,4.31 c 9.12,5.76 12.5,15.61 12.5,38.66 0,40.54 -9.37,57.82 -33.38,62.13 -14.62,2.65 -51.34,3.37 -53.75,0.74"
         style="fill:#1d3c85;fill-opacity:1;fill-rule:nonzero;stroke:none"
         id="path893" />
      <path
         d="m 1417.33,52.6289 c 598.49,0 1108.53,386.9021 1303.94,929.3591 H 113.391 C 308.785,439.531 818.844,52.6289 1417.33,52.6289"
         style="fill:#7990c5;fill-opacity:1;fill-rule:nonzero;stroke:none"
         id="path895" />
      <path
         d="m 633.285,689.73 c -12.457,-1.441 -22.996,-7.921 -27.547,-17.011 -4.082,-7.68 -3.84,-31.637 0.239,-41.457 2.398,-5.524 9.586,-12.473 23.238,-22.282 18.453,-12.929 20.121,-15.101 21.332,-23.73 1.676,-11.25 -0.969,-17.73 -7.195,-17.73 -5.036,0 -5.278,0.242 -5.75,16.789 l -0.477,10.773 -17.258,0.719 -17.246,0.711 0.957,-14.371 c 0.723,-7.903 2.883,-17.731 5.027,-21.809 8.153,-15.82 39.54,-21.801 60.387,-11.73 13.172,6.468 15.817,11.488 16.539,32.109 0.949,25.16 -3.605,33.769 -27.09,49.34 -10.296,6.73 -19.16,12.699 -19.402,13.199 -0.476,0.242 -1.437,4.789 -2.16,9.82 -0.719,6.219 -0.238,10.301 2.16,11.969 4.789,4.082 10.063,0 10.539,-8.141 0.246,-3.597 0.727,-7.906 0.727,-9.347 0.242,-1.68 6.468,-2.871 16.769,-3.121 l 16.77,-0.231 -0.957,13.18 c -0.961,14.133 -5.27,23.242 -13.18,27.543 -7.672,4.078 -24.199,6.25 -36.422,4.808"
         style="fill:#ffffff;fill-opacity:1;fill-rule:nonzero;stroke:none"
         id="path897" />
      <path
         d="m 1043.73,689.48 c -10.78,-2.14 -19.65,-9.109 -24.68,-19.171 -3.59,-6.938 -4.31,-15.09 -4.31,-53.668 0,-51.27 1.68,-57.512 16.76,-67.801 10.79,-7.43 28.29,-6.481 37.15,1.91 l 6,5.52 v -5.032 c 0,-4.797 1.19,-5.289 11.97,-5.289 h 11.97 v 38.36 38.562 l -20.84,-0.711 -20.84,-0.711 -0.25,-9.117 c 0,-5.023 1.21,-10.062 2.65,-10.781 5.75,-3.36 5.27,-31.153 -0.48,-33.321 -2.17,-0.71 -4.79,0 -6,1.93 -1.19,1.91 -2.15,23.469 -2.15,47.922 0,34.988 0.72,45.289 3.36,47.449 5.02,4.309 8.14,-1.691 9.1,-16.539 l 0.72,-12.933 h 17.73 l 17.49,-0.25 -1.19,16.293 c -0.72,11.269 -2.4,18.449 -5.76,22.757 -9.1,12.231 -29.95,18.45 -48.4,14.621"
         style="fill:#ffffff;fill-opacity:1;fill-rule:nonzero;stroke:none"
         id="path899" />
      <path
         d="m 1336.04,661.211 c 1.44,-41.211 -0.23,-49.84 -8.85,-46.492 -4.32,1.441 -5.04,6.48 -4.79,30.191 0.23,15.102 1.19,21.559 3.6,23.25 5.27,3.11 9.81,0 10.04,-6.949 z M 1314.96,689 c -12.46,-2.391 -23.94,-13.168 -26.11,-24.43 -0.72,-4.32 -0.96,-18.941 -0.48,-32.34 0.71,-23.98 0.71,-24.468 8.62,-31.41 8.87,-8.129 24.45,-9.57 33.55,-3.109 2.88,1.918 5.27,2.879 5.5,1.687 0.74,-9.597 0,-29.699 -1.43,-31.636 -2.39,-4.313 -10.77,-3.114 -11.27,1.687 0,2.141 -0.47,5.262 -0.71,6.461 -0.48,1.442 -0.72,3.84 -0.95,5.512 -0.24,1.918 -5.52,2.887 -17.27,2.887 h -17.24 l 1.44,-10.071 c 2.64,-19.406 17.25,-30.668 40,-30.668 19.42,0.239 32.59,6.942 38.34,19.641 4.32,9.34 4.56,15.09 4.09,57.508 -0.49,43.371 -0.96,47.679 -5.51,53.91 -9.36,12.941 -29.72,18.68 -50.57,14.371"
         style="fill:#ffffff;fill-opacity:1;fill-rule:nonzero;stroke:none"
         id="path901" />
      <path
         d="m 1502.11,606.82 c 0.7,-2.172 1.43,-10.55 1.43,-18.922 0,-8.398 -0.73,-16.796 -1.43,-18.929 -2.17,-5.52 -9.82,-4.809 -11.76,0.953 -1.68,5.027 -1.19,35.949 0.49,39.058 1.91,3.102 9.82,1.68 11.27,-2.16 z m -1.45,59.649 c 1.92,-3.59 2.15,-21.309 0.73,-29.938 -0.49,-3.121 -6.96,-2.16 -9.1,1.199 -4.81,7.899 -1.94,32.821 4.06,32.821 1.19,0 3.1,-1.91 4.31,-4.082 z m -19.64,22.062 c -6.23,-1.679 -12.95,-4.551 -14.63,-6.23 -11.51,-11.512 -13.66,-36.91 -4.32,-49.61 5.06,-6.953 5.06,-6.953 0.49,-11.722 -5.76,-5.528 -7.42,-13.91 -7.42,-34.278 0,-32.339 12.93,-44.57 45.04,-42.64 29.23,1.898 37.61,11.719 37.61,43.847 0,19.641 -2.63,29.461 -9.33,34.024 l -6,3.816 6.72,5.524 c 6.23,4.797 6.7,6.468 6.7,21.808 0,11.969 -1.19,18.442 -4.3,23.239 -7.91,11.98 -29.96,17.492 -50.56,12.222"
         style="fill:#ffffff;fill-opacity:1;fill-rule:nonzero;stroke:none"
         id="path903" />
      <path
         d="m 691.27,684.449 c 0,-1.668 0.96,-9.59 2.16,-17.5 1.433,-7.898 2.879,-18.211 3.59,-22.75 0.722,-4.539 2.882,-18.687 4.796,-31.14 1.922,-12.469 4.305,-27.559 5.032,-33.559 0.957,-5.969 2.398,-15.34 3.351,-20.84 1.196,-5.519 1.438,-10.781 0.723,-11.488 -0.723,-0.731 11.734,-1.223 27.801,-1.223 26.101,0 29.226,0.492 29.457,4.313 0,2.168 0.722,7.437 1.207,11.269 0.48,4.078 2.629,19.641 4.789,34.739 1.914,15.101 4.07,30.199 4.554,33.539 0.473,3.363 1.68,12.48 2.633,20.382 0.723,7.911 2.399,19.411 3.348,25.891 l 1.691,11.258 h -18.691 c -10.309,0 -19.172,-0.731 -19.66,-1.68 -0.711,-1.211 -1.914,-11.031 -2.625,-22.289 -4.797,-58.949 -8.395,-82.422 -8.863,-56.062 0,6.461 -0.485,13.66 -0.965,15.8 -0.481,2.153 -1.438,12.7 -2.383,23.493 -0.969,10.777 -1.926,21.308 -2.402,23.48 -0.485,2.16 -0.969,6.938 -0.969,10.777 l -0.239,6.481 h -19.16 c -13.668,0 -19.175,-0.969 -19.175,-2.891"
         style="fill:#ffffff;fill-opacity:1;fill-rule:nonzero;stroke:none"
         id="path905" />
      <path
         d="m 791.914,616.641 v -70.692 h 64.688 v 28.762 h -13.899 -13.894 v 15.57 l -0.235,15.59 h 11.731 11.504 v 12.918 13.191 l -11.262,0.711 -11.504,0.719 v 13.192 13.168 h 11.98 l 11.985,0.242 0.722,13.648 0.704,13.68 h -31.375 -31.145 v -70.699"
         style="fill:#ffffff;fill-opacity:1;fill-rule:nonzero;stroke:none"
         id="path907" />
      <path
         d="m 912.91,660.5 c 4.785,-12.461 1.68,-28.27 -5.508,-28.27 -3.593,0 -4.316,2.141 -4.316,15.559 -0.242,13.672 0.234,15.582 4.316,15.582 2.383,0 5.02,-1.449 5.508,-2.871 z m -46.726,-43.859 v -70.692 h 17.964 c 12.707,0 17.981,0.973 18.215,3.11 0.235,1.453 0.481,15.832 0.723,31.41 0.234,28.269 1.434,32.34 8.379,28.031 2.402,-1.68 3.359,-9.102 3.125,-32.352 v -30.199 h 16.289 c 10.781,0 16.523,0.973 17.246,3.11 0.488,1.453 0.723,14.632 0.488,28.773 -0.246,28.508 -2.871,36.18 -12.707,39.777 l -6.226,2.153 7.664,2.867 c 8.867,3.109 11.269,10.312 10.781,30.672 -0.469,16.301 -6.465,27.07 -17.246,30.91 -4.551,1.668 -21.094,2.879 -36.414,2.879 l -28.281,0.25 v -70.699"
         style="fill:#ffffff;fill-opacity:1;fill-rule:nonzero;stroke:none"
         id="path909" />
      <path
         d="m 964.434,616.641 v -70.692 h 37.126 v 69.973 l -0.25,70.199 -18.439,0.731 -18.437,0.718 v -70.929"
         style="fill:#ffffff;fill-opacity:1;fill-rule:nonzero;stroke:none"
         id="path911" />
      <path
         d="m 1115.37,616.641 v -70.692 h 64.69 v 28.762 h -13.89 -13.9 v 15.57 l -0.24,15.59 h 11.74 11.5 v 12.918 13.191 l -11.26,0.711 -11.5,0.719 v 13.192 13.168 h 12.7 12.45 v 13.89 13.68 h -31.14 -31.15 v -70.699"
         style="fill:#ffffff;fill-opacity:1;fill-rule:nonzero;stroke:none"
         id="path913" />
      <path
         d="m 1246.2,680.148 c -3.84,-3.839 -11.75,-8.878 -17.98,-11.257 -12.46,-4.559 -13.88,-6.012 -13.42,-13.442 0.25,-4.058 2.41,-5.5 10.79,-6.937 5.76,-0.961 11.27,-3.121 12.46,-4.793 0.95,-1.68 1.91,-24.438 1.91,-50.321 v -47.449 h 16.54 c 11.02,0 16.77,0.973 17.49,3.11 0.48,1.453 0.74,33.082 0.74,69.972 l -0.26,67.09 -10.54,0.731 c -9.12,0.488 -11.74,-0.481 -17.73,-6.704"
         style="fill:#ffffff;fill-opacity:1;fill-rule:nonzero;stroke:none"
         id="path915" />
      <path
         d="m 1381.09,686.852 c -1.19,-3.602 -0.71,-19.653 0.73,-21.813 0.96,-1.449 7.91,-2.641 16.77,-2.867 13.66,0 15.09,-0.473 14.61,-4.793 -0.24,-2.629 -5.27,-27.789 -11.27,-55.828 -5.98,-28.02 -11.01,-52 -11.01,-53.192 0,-1.437 7.43,-2.41 16.52,-2.41 13.91,0 17.03,0.731 17.97,4.313 5.05,17.5 21.09,107.84 21.58,120.289 l 0.25,15.57 -32.85,0.731 c -18.2,0.238 -33.05,0.238 -33.3,0"
         style="fill:#ffffff;fill-opacity:1;fill-rule:nonzero;stroke:none"
         id="path917" />
      <path
         d="m 1865.04,919.641 c 0,-1.911 -0.96,-3.59 -2.38,-3.59 -1.2,0 -2.41,1.679 -2.41,3.59 0,1.91 1.21,3.578 2.41,3.578 1.42,0 2.38,-1.668 2.38,-3.578 z m 461.72,413.869 c -5.98,-3.11 -12.91,-5.75 -15.55,-5.98 -2.62,0 -11.48,-4.31 -19.84,-9.57 -29.44,-18.66 -53.36,-26.31 -82.78,-26.31 -30.39,0 -72.5,-4.31 -81.34,-8.38 -4.07,-1.68 -11.25,-4.06 -15.79,-4.78 -20.35,-3.83 -69.86,-18.91 -75.37,-22.97 -1.19,-0.96 -11.48,-6.22 -22.73,-11.95 -11.23,-5.51 -29.9,-16.52 -41.39,-24.17 -11.72,-7.66 -21.52,-13.88 -21.99,-13.88 -0.25,0 -6.46,-5.27 -13.4,-11.95 -7.19,-6.47 -13.65,-11.98 -14.35,-11.98 -1.92,0 -35.65,-32.77 -35.65,-34.68 0,-0.96 -4.78,-6.22 -10.78,-12.2 -5.98,-5.74 -10.76,-10.77 -10.76,-11.49 0,-0.71 -6.45,-9.57 -14.1,-20.09 -7.91,-10.29 -18.19,-26.56 -22.97,-35.89 -4.79,-9.57 -9.34,-17.22 -10.53,-17.22 -0.96,0 -5.98,-10.05 -10.76,-22.01 -5.04,-12.2 -10.29,-24.88 -11.74,-28.229 -1.42,-3.34 -2.87,-6.941 -3.1,-8.371 0,-1.199 -2.15,-6.461 -4.3,-11.488 -7.42,-16.75 -13.89,-56.223 -12.21,-75.121 1.43,-17.219 8.38,-41.391 13.4,-47.602 1.43,-1.918 1.91,-3.359 0.72,-3.359 -0.95,0 -0.72,-1.192 0.96,-2.86 3.57,-3.589 3.83,-34.46 0.47,-36.609 -1.43,-0.961 -1.92,-2.391 -1.19,-3.59 0.72,-1.199 -0.73,-3.582 -3.11,-5.261 -12.44,-8.61 -7.19,-30.629 7.17,-30.629 9.1,0 25.84,4.789 25.84,7.66 0,0.961 0.96,1.91 2.15,1.91 5.02,0 33.26,18.187 47.36,30.391 7.91,6.937 22.01,21.527 31.11,32.058 8.85,10.762 29.18,30.621 44.99,44.25 15.78,13.879 30.85,26.801 33.47,29.192 2.64,2.398 9.57,6.699 15.57,9.57 23.67,11.238 33.47,13.16 71.76,14.109 20.33,0.489 39.23,1.918 41.87,3.117 2.64,1.204 10.76,3.832 17.93,6.223 7.19,2.149 16.99,6.211 21.54,8.848 9.34,5.261 26.31,20.82 26.31,23.691 0,0.961 -13.63,1.91 -30.37,2.149 -16.99,0 -35.41,0.953 -41.39,1.91 l -10.78,1.922 8.38,3.589 c 4.55,2.149 11.25,5.98 14.59,8.85 3.36,2.62 11.02,5.97 16.76,7.17 13.87,3.35 41.62,3.35 53.57,0 21.31,-5.98 39.48,-25.121 39.48,-41.391 0,-28.218 -15.3,-94.968 -23.21,-101.187 -1.91,-1.442 -2.87,-3.832 -2.14,-5.024 0.72,-1.449 0.72,-2.867 -0.47,-3.359 -0.96,-0.238 -5.28,-7.66 -9.83,-16.258 -4.53,-8.609 -13.86,-23.211 -20.8,-32.781 -7.19,-9.57 -12.93,-18.418 -12.93,-19.609 0,-1.442 -4.78,-6.469 -10.76,-11.493 -5.98,-4.777 -10.76,-10.289 -10.76,-11.957 0,-1.441 -4.55,-6.461 -10.06,-10.769 -5.49,-4.301 -14.34,-12.192 -19.61,-17.703 -5.51,-5.258 -14.59,-12.668 -20.33,-16.5 -5.74,-3.828 -10.76,-8.379 -11.49,-10.059 -0.72,-1.672 -2.14,-3.109 -3.1,-3.109 -2.64,0 -37.09,-24.391 -45.47,-32.051 -3.34,-3.109 -11.95,-8.609 -19.12,-12.441 -7.19,-3.829 -13.65,-7.649 -13.89,-8.86 -2.15,-4.777 -73.44,-37.551 -97.36,-44.73 -15.31,-4.789 -66.76,-32.778 -81.82,-44.977 -22.01,-17.461 -39.47,-33.972 -38.51,-36.601 0.47,-1.2 6.21,2.148 12.67,7.418 16.51,13.402 43.77,21.773 69.38,21.773 10.76,0 22.24,-1.211 26.07,-2.633 16.04,-5.988 83.01,-1.199 93.3,6.93 1.45,1.191 8.15,3.832 14.59,5.98 6.7,2.161 13.89,5.512 16.53,7.422 4.06,3.11 5.02,2.641 10.03,-5.019 3.11,-4.551 5.75,-9.571 5.75,-10.774 0,-3.347 33.73,-35.648 37.09,-35.648 4.53,0 14.59,-15.551 18.88,-29.418 3.36,-10.531 4.07,-17.703 2.87,-28.231 -0.95,-7.66 -0.95,-14.109 -0.23,-14.109 6.47,0 46.64,48.316 46.64,55.969 0,2.148 1.21,3.828 2.4,3.828 1.43,0 2.39,7.18 2.39,16.512 0,9.328 -0.96,17.468 -2.39,18.179 -1.19,0.719 -2.4,3.11 -2.4,5.262 0,1.918 -3.57,8.617 -8.12,14.84 -4.32,5.969 -9.34,15.308 -11,20.566 -1.68,5.274 -4.08,11.012 -5.27,12.442 -1.43,1.672 -1.92,5.269 -1.2,7.902 0.73,2.617 0.24,5.488 -0.95,6.219 -2.64,1.679 0,18.898 4.29,27.031 1.68,3.359 3.13,7.418 3.13,8.848 0,2.871 48.32,50.949 82.05,81.82 38.52,35.398 94.49,81.82 105.25,87.32 8.87,4.551 18.44,12.93 18.44,15.801 0,1.668 1.9,3.34 4.3,4.289 5.74,1.922 26.8,22.488 26.8,26.078 0,1.684 3.34,5.274 7.42,8.141 3.83,2.871 9.8,9.332 12.91,14.59 3.34,5.019 9.57,12.91 14.35,17.461 4.55,4.55 8.38,9.34 8.38,10.531 0,1.187 4.06,7.891 9.08,15.078 9.34,13.152 17.95,28.941 25.36,45.93 2.16,4.781 4.78,8.851 5.74,8.851 2.17,0 10.29,21.76 17.22,45.45 2.88,9.81 6.7,21.29 8.62,25.12 3.59,7.89 4.55,67.46 1.21,71.78 -1.21,1.19 -3.36,7.89 -4.79,14.35 -3.82,15.06 -16.75,46.64 -19.39,46.64 -0.96,0 -4.79,4.79 -8.13,10.3 -5.27,9.08 -14.35,18.41 -53.59,53.58 -4.55,4.31 -11.72,9.33 -15.55,11.01 -5.97,3.1 -7.16,5.02 -7.42,13.39 0,5.51 0.49,9.81 1.68,9.81 0.96,0 1.68,1.68 1.68,3.59 0,1.92 1.19,3.6 2.64,3.6 1.42,0 5.97,3.81 10.04,8.36 4.06,4.55 8.61,8.37 10.29,8.37 1.66,0 7.17,2.4 11.95,5.27 6.23,3.58 14.59,5.74 27.03,6.7 20.34,1.43 25.12,5.74 8.85,8.13 -5.97,0.96 -11.46,2.64 -12.19,4.07 -0.95,1.2 -16.5,2.15 -35.41,1.91 -30.62,-0.24 -34.92,-0.71 -44.74,-5.74"
         style="fill:#1d3c85;fill-opacity:1;fill-rule:nonzero;stroke:none"
         id="path919" />
      <path
         d="M 1417.32,85.0313 C 681.52,85.0313 85.0391,681.512 85.0391,1417.31 c 0,735.82 596.4809,1332.28 1332.2809,1332.28 735.81,0 1332.29,-596.46 1332.29,-1332.28 0,-735.798 -596.48,-1332.2787 -1332.29,-1332.2787 z m 0,2749.5987 C 634.551,2834.63 0,2200.08 0,1417.31 0,634.539 634.551,0 1417.32,0 c 782.78,0 1417.33,634.539 1417.33,1417.31 0,782.77 -634.55,1417.32 -1417.33,1417.32"
         style="fill:#1d3c85;fill-opacity:1;fill-rule:nonzero;stroke:none"
         id="path921" />
      <path
         d="m 1855.04,929.641 c 0,-7.821 -6.35,-14.172 -14.18,-14.172 -7.82,0 -14.17,6.351 -14.17,14.172 0,7.828 6.35,14.179 14.17,14.179 7.83,0 14.18,-6.351 14.18,-14.179"
         style="fill:#ffffff;fill-opacity:1;fill-rule:nonzero;stroke:none"
         id="path923" />
    </g>
  </g>
</svg>
