<?xml version="1.0" encoding="UTF-8" standalone="no"?>
<svg
   xmlns:dc="http://purl.org/dc/elements/1.1/"
   xmlns:cc="http://creativecommons.org/ns#"
   xmlns:rdf="http://www.w3.org/1999/02/22-rdf-syntax-ns#"
   xmlns:svg="http://www.w3.org/2000/svg"
   xmlns="http://www.w3.org/2000/svg"
   xmlns:sodipodi="http://sodipodi.sourceforge.net/DTD/sodipodi-0.dtd"
   xmlns:inkscape="http://www.inkscape.org/namespaces/inkscape"
   width="361.24448mm"
   height="361.24448mm"
   viewBox="0 0 361.24448 361.24448"
   version="1.1"
   id="svg8"
   inkscape:version="1.0.1 (3bc2e813f5, 2020-09-07)"
   sodipodi:docname="f_logo_rgb_blue.svg">
  <defs
     id="defs2" />
  <sodipodi:namedview
     id="base"
     pagecolor="#ffffff"
     bordercolor="#666666"
     borderopacity="1.0"
     inkscape:pageopacity="0.0"
     inkscape:pageshadow="2"
     inkscape:zoom="0.175"
     inkscape:cx="810.93407"
     inkscape:cy="1554.1132"
     inkscape:document-units="mm"
     inkscape:current-layer="layer1"
     inkscape:document-rotation="0"
     showgrid="false"
     fit-margin-top="0"
     fit-margin-left="0"
     fit-margin-right="0"
     fit-margin-bottom="0"
     inkscape:window-width="1347"
     inkscape:window-height="1040"
     inkscape:window-x="2050"
     inkscape:window-y="0"
     inkscape:window-maximized="0" />
  <metadata
     id="metadata5">
    <rdf:RDF>
      <cc:Work
         rdf:about="">
        <dc:format>image/svg+xml</dc:format>
        <dc:type
           rdf:resource="http://purl.org/dc/dcmitype/StillImage" />
        <dc:title></dc:title>
      </cc:Work>
    </rdf:RDF>
  </metadata>
  <g
     inkscape:label="Lager 1"
     inkscape:groupmode="layer"
     id="layer1"
     transform="translate(217.6639,339.37223)">
    <g
       id="g843"
       transform="matrix(0.03527778,0,0,-0.03527778,-217.6639,21.872234)">
      <path
         d="m 10240,5120 c 0,2827.7 -2292.3,5120 -5120,5120 C 2292.3,10240 0,7947.7 0,5120 0,2564.46 1872.31,446.301 4320,62.1992 V 3640 H 3020 v 1480 h 1300 v 1128 c 0,1283.2 764.38,1992 1933.9,1992 560.17,0 1146.1,-100 1146.1,-100 V 6880 H 6754.38 C 6118.35,6880 5920,6485.33 5920,6080.43 V 5120 H 7340 L 7113,3640 H 5920 V 62.1992 C 8367.69,446.301 10240,2564.46 10240,5120"
         style="fill:#1877f2;fill-opacity:1;fill-rule:nonzero;stroke:none"
         id="path845" />
      <path
         d="m 7113,3640 227,1480 H 5920 v 960.43 c 0,404.9 198.35,799.57 834.38,799.57 H 7400 v 1260 c 0,0 -585.93,100 -1146.1,100 C 5084.38,8240 4320,7531.2 4320,6248 V 5120 H 3020 V 3640 H 4320 V 62.1992 C 4580.67,21.3008 4847.84,0 5120,0 c 272.16,0 539.33,21.3008 800,62.1992 V 3640 h 1193"
         style="fill:#ffffff;fill-opacity:1;fill-rule:nonzero;stroke:none"
         id="path847" />
    </g>
  </g>
</svg>
